inDegrees=no
num_controls=7
num_derivatives=13
num_iterations=128
num_multipliers=7
num_parameters=0
num_slacks=7
num_states=26
objective=0.464730
objective_accelerations=0.005318
objective_balance=0.001966
objective_effort=0.004843
objective_height=0.445949
objective_ligament=0.006654
solver_duration=1840.255148
status=Solve_Succeeded
success=true
DataType=double
version=3
OpenSimVersion=4.5
endheader
time	/jointset/ground_pelvis/pelvis_tilt/value	/jointset/ground_pelvis/pelvis_tx/value	/jointset/ground_pelvis/pelvis_ty/value	/jointset/hip_l/hip_flexion_l/value	/jointset/hip_l/hip_adduction_l/value	/jointset/hip_l/hip_rotation_l/value	/jointset/back/lumbar_extension/value	/jointset/patellofemoral_l/patellar_flexion_l/value	/jointset/knee_l/knee_flexion_l/value	/jointset/knee_l/knee_adduction_l/value	/jointset/knee_l/knee_rotation_l/value	/jointset/ankle_l/ankle_angle_l/value	/jointset/subtalar_l/subtalar_angle_l/value	/jointset/ground_pelvis/pelvis_tilt/speed	/jointset/ground_pelvis/pelvis_tx/speed	/jointset/ground_pelvis/pelvis_ty/speed	/jointset/hip_l/hip_flexion_l/speed	/jointset/hip_l/hip_adduction_l/speed	/jointset/hip_l/hip_rotation_l/speed	/jointset/back/lumbar_extension/speed	/jointset/patellofemoral_l/patellar_flexion_l/speed	/jointset/knee_l/knee_flexion_l/speed	/jointset/knee_l/knee_adduction_l/speed	/jointset/knee_l/knee_rotation_l/speed	/jointset/ankle_l/ankle_angle_l/speed	/jointset/subtalar_l/subtalar_angle_l/speed	/forceset/tau_hip_flexion_l	/forceset/tau_hip_adduction_l	/forceset/tau_hip_rotation_l	/forceset/tau_knee_flexion_l	/forceset/tau_ankle_angle_l	/forceset/tau_subtalar_angle_l	/forceset/tau_lumbar_extension	lambda_cid13_p0	lambda_cid13_p1	lambda_cid13_p2	lambda_cid13_p3	lambda_cid13_p4	lambda_cid13_p5	lambda_cid14_p0	/jointset/ground_pelvis/pelvis_tilt/accel	/jointset/ground_pelvis/pelvis_tx/accel	/jointset/ground_pelvis/pelvis_ty/accel	/jointset/hip_l/hip_flexion_l/accel	/jointset/hip_l/hip_adduction_l/accel	/jointset/hip_l/hip_rotation_l/accel	/jointset/back/lumbar_extension/accel	/jointset/patellofemoral_l/patellar_flexion_l/accel	/jointset/knee_l/knee_flexion_l/accel	/jointset/knee_l/knee_adduction_l/accel	/jointset/knee_l/knee_rotation_l/accel	/jointset/ankle_l/ankle_angle_l/accel	/jointset/subtalar_l/subtalar_angle_l/accel	gamma_cid13_p0	gamma_cid13_p1	gamma_cid13_p2	gamma_cid13_p3	gamma_cid13_p4	gamma_cid13_p5	gamma_cid14_p0
0.5	-0.06805012686999884	0.07526300563195266	0.8841851974435364	0.2935588187676315	-0.358372184484696	-0.4829329952096001	-0.2259866843683644	0.2245083425290728	0.2245083425291439	-0.1742987952474832	-0.1737525837494571	0.01033897028459723	0.006555098891904794	-0.0585349144727208	0.01347548589056482	-0.03894609288631194	0.2661894951231231	-0.1017640585227297	0.1614877107686999	-0.1876890910697394	0.4205021306320932	0.4205021306321748	-0.000380540187060442	-0.00290245407954279	0.216353779834917	0.005206149996204433	-0.03256779111657387	0.01824287410225526	-0.01658466928754148	-0.1235018085608252	0.03146489503609949	0.00378260689746894	0.07471797320638372	-25.48845144033952	-3.884498525016088	7.941592971175056	2.50260983867232	-546.0118921987859	-66.27997242213044	-42.72693964718494	0.003728092003168508	0.03795002281860427	-0.01063507479436982	-0.1562422816509611	0.09334824915489941	-0.083508108013163	0.4043580956497807	-0.2555363270343379	-0.2555363270343551	0.001208040002003618	0.00458342161893324	-0.07296827328852651	0.06051467969849697	6.653147377446388e-09	-1.860563827146916e-08	-1.042151923844093e-08	-6.352736369275791e-09	1.212269524407935e-08	2.065120986786963e-09	1.336467762841512e-10
0.51	-0.0686353742494392	0.07539965271262329	0.8837952472894707	0.2962127616846683	-0.3593850483831676	-0.4813226668107775	-0.2278430059977722	0.2287001708870989	0.2287001708870536	-0.1743024886079946	-0.1737815683964007	0.01249863621143274	0.006610191406502239	-0.05851325524716406	0.01385415852983053	-0.03903775147326625	0.2645655449888675	-0.1007963467458404	0.1605554473718736	-0.1835490541249256	0.4178057212594065	0.4178057212595638	-0.00035880486114477	-0.002893305994438828	0.2155517600198363	0.005811388615567336	-0.03380412681543168	0.01955645442987931	-0.01635322289075998	-0.1232190140055089	0.02943634209757478	0.003997574230691413	0.07581006546583399	-26.1295643285247	-3.865722954226066	7.938734783098846	2.691439368076307	-546.2349296686624	-66.05377510413281	-42.7175453669555	0.001582041389748467	0.03785882574513279	-0.007500677299050315	-0.1705013267919064	0.1003424040389762	-0.1014631747714874	0.422753596849861	-0.2853662561716281	-0.2853662561602606	0.002551083783872303	-0.0007450708869986798	-0.0879652696453021	0.06038790995440511	7.411418677731139e-09	-1.818921007577294e-08	-1.223122571870662e-08	-6.620475250256138e-09	1.376016832121824e-08	3.515450080531476e-09	4.340900343951628e-10
0.52	-0.06922036559590906	0.07554009310793956	0.8834045666642047	0.2988494591108643	-0.3603878632114536	-0.479722336589774	-0.2296571418371418	0.2328633005486412	0.2328633005484763	-0.1743059856542666	-0.1738104266770566	0.01464945265331202	0.006671308198673244	-0.05848370787930251	0.01423414881969719	-0.03909218712634976	0.2627403969554488	-0.09975424448562883	0.1594880752048823	-0.1792519330620115	0.414762391335288	0.4147623913355212	-0.0003412773393267122	-0.002877180823060366	0.214583882843658	0.006411005510900366	-0.03504046251434433	0.02087003475750264	-0.01612177649401654	-0.1229362194502066	0.02740778915904402	0.004212541563910128	0.07690215772524332	-26.77259790280124	-3.846491806838419	7.935667756266342	2.883092531459071	-546.4882327882071	-65.83258615391455	-42.70625047332263	0.00530572046406924	0.03821355293884591	-0.00319048802021324	-0.1964818614836018	0.1082263458193314	-0.1105298620461623	0.4357749192698102	-0.3249204373207056	-0.3249204373207059	0.0003664791824753598	0.005978838873847144	-0.1061397455079943	0.05939033489255109	8.123898264117727e-09	-1.772356361419098e-08	-1.399445930818966e-08	-6.845551206245946e-09	1.524235385014939e-08	4.93070206577677e-09	7.384501497304392e-10
0.53	-0.06980500802252586	0.07568433518058161	0.8830135291167946	0.3014669255834057	-0.3613798798645056	-0.4781333506772346	-0.231427574559469	0.2369943167901493	0.2369943167901023	-0.1743092766470403	-0.1738390965951015	0.01678978891350278	0.006738415013555261	-0.05843955825780903	0.01461414972427633	-0.03910857562996042	0.2607166852000235	-0.09863634324185087	0.1582884324407713	-0.1748163983209057	0.4113845015972625	0.4113845015973998	-0.0003152493838287216	-0.002853884278657842	0.2134567947266762	0.007010439890495092	-0.03621390426367791	0.02211448746565526	-0.01590308784191818	-0.1227150183069726	0.02546194267817579	0.004424192611281657	0.07793636234518821	-27.38755883426798	-3.829926424228049	7.932101289070131	3.059249495293332	-546.7106824738172	-65.62401490230687	-42.69312792438954	0.004753832926134292	0.03787456892242316	0.0001521815021823325	-0.2107459967841701	0.1154873658905966	-0.1277816459262342	0.4501747138342724	-0.3526767271673076	-0.3526767271816962	0.003967213918377024	0.0009412302574545589	-0.1199789831346627	0.06023670420943277	8.825908199761955e-09	-1.709546545543398e-08	-1.571258918263209e-08	-7.049169345503497e-09	1.666401536692543e-08	6.413588775160783e-09	1.04149113149689e-09
